:FULLY-SPECIFIED
:FORCE-ALL-JOINTS-BE-3DOF
:DEGREES
2548
root 4.00084 13.7694 -23.7192 1046.9 87.4249 -34.5158
lfemur -35.2047 -0.537893 -15.9541
ltibia 89.1887 0 0
lfoot -23.2753 31.1384 0.0948134
ltoes -40.4126 0 0
rfemur -54.6459 -17.0752 5.20865
rtibia 46.2639 -0 0
rfoot -7.62026 5.93959 0.115399
rtoes 6.88123 -0 0
lowerback 17.4873 -0.505924 -3.65981
upperback -0.320849 -1.03867 3.1478
thorax -10.0792 -0.183587 5.81183
lowerneck 5.28915 -14.3483 -15.2639
upperneck -0.103809 -20.0958 14.8136
head 2.17248 -10.2029 6.23596
lclavicle 1.02819e-14 -4.29499e-16 -8.85496e-31
lhumerus -41.3909 -48.3128 110.349
lradius 107.337 -0 0
lwrist 80.8455 0 0
lhand 6.69979 40.372 -2.19922e-05
lfingers 7.12502 -0 0
lthumb 31.777 67.5174 -0.00272536
rclavicle -2.07233e-14 1.82882e-14 0
rhumerus 9.36127 -12.9719 -60.4075
rradius 81.1798 -0 0
rwrist 6.70364 0 0
rhand -32.2597 -43.9878 0.127901
rfingers 7.12502 -0 0
rthumb -5.06096 -73.6637 0.0678294
2549
root 3.94602 13.8019 -23.8491 1063.56 86.3371 -17.6461
lfemur -35.1988 -0.671148 -15.9849
ltibia 89.1397 -0 0
lfoot -22.6712 31.5099 0.0670036
ltoes -40.7397 0 0
rfemur -54.716 -17.0657 5.34984
rtibia 44.6842 -0 0
rfoot -7.90041 5.47515 0.109617
rtoes 6.27927 -0 0
lowerback 17.7476 -0.491237 -4.00099
upperback -0.162749 -1.09174 3.16648
thorax -10.0379 -0.193917 6.04836
lowerneck 5.31201 -14.2867 -15.3649
upperneck -0.0311793 -20.0271 14.8521
head 2.19431 -10.1699 6.26569
lclavicle 1.13519e-14 1.29848e-15 -8.36546e-31
lhumerus -40.8887 -48.5394 110.102
lradius 106.951 -0 0
lwrist 80.2986 0 0
lhand 6.66033 40.375 -8.39827e-05
lfingers 7.12502 -0 0
lthumb 31.4818 67.5309 -0.00217353
rclavicle -2.09564e-14 1.81625e-14 -3.85573e-32
rhumerus 10.3803 -11.2616 -60.1137
rradius 81.9164 -0 0
rwrist 3.81289 0 0
rhand -31.6051 -43.5924 0.104843
rfingers 7.12502 -0 0
rthumb -4.65061 -73.4056 0.0509331
2550
root 3.89319 13.8344 -23.9859 1073.5 85.0017 -7.42388
lfemur -35.2205 -0.642985 -16.0139
ltibia 88.9983 -0 0
lfoot -22.1713 31.8173 0.0410219
ltoes -41.0923 0 0
rfemur -54.9184 -17.0372 5.75777
rtibia 43.1733 -0 0
rfoot -8.17282 5.0235 0.101815
rtoes 5.61423 -0 0
lowerback 18.0528 -0.516278 -4.32661
upperback -0.00628117 -1.21048 3.06841
thorax -10.0158 -0.240168 6.16496
lowerneck 5.1318 -14.2786 -15.2805
upperneck 0.320545 -20.0117 14.7351
head 2.30353 -10.1528 6.19413
lclavicle 1.23858e-14 2.96821e-15 -7.58589e-31
lhumerus -40.4801 -48.7215 109.9
lradius 106.541 -0 0
lwrist 79.7142 0 0
lhand 6.59757 40.3796 -0.000178427
lfingers 7.12502 -0 0
lthumb 31.2193 67.5428 -0.00162424
rclavicle -2.1625e-14 1.78019e-14 -1.46335e-31
rhumerus 11.5663 -9.28495 -59.7365
rradius 82.6681 -0 0
rwrist 1.03899 0 0
rhand -31.0155 -43.2365 0.0802052
rfingers 7.12502 -0 0
rthumb -4.29777 -73.1838 0.034924
2551
root 3.8419 13.8722 -24.1304 1077.93 83.3645 -2.81795
lfemur -35.2836 -0.561209 -16.0983
ltibia 88.7729 -0 0
lfoot -21.7928 32.0499 0.0195642
ltoes -41.4662 0 0
rfemur -55.2411 -16.9888 6.40909
rtibia 41.7484 -0 0
rfoot -8.43497 4.58878 0.0922779
rtoes 4.89386 -0 0
lowerback 18.2457 -0.517811 -4.66981
upperback 0.16141 -1.28748 3.07361
thorax -9.91986 -0.265828 6.3916
lowerneck 4.85866 -14.2997 -15.423
upperneck 0.777835 -20.0535 14.8342
head 2.51344 -10.1612 6.19559
lclavicle 1.33657e-14 4.55057e-15 -6.56903e-31
lhumerus -40.1758 -48.8558 109.748
lradius 106.112 -0 0
lwrist 79.1004 0 0
lhand 6.51395 40.3858 -0.000296309
lfingers 7.12502 -0 0
lthumb 30.994 67.5531 -0.00110915
rclavicle -2.26833e-14 1.72311e-14 -3.0833e-31
rhumerus 12.9009 -7.08465 -59.2682
rradius 83.4198 -0 0
rwrist -1.58467 0 0
rhand -30.5043 -42.9279 0.0558693
rfingers 7.12502 -0 0
rthumb -4.01006 -73.0029 0.0208565
2552
root 3.79253 13.9055 -24.2838 1081.98 81.5396 1.29475
lfemur -35.3852 -0.429972 -16.2342
ltibia 88.4718 -0 0
lfoot -21.5531 32.1972 0.00517352
ltoes -41.8571 0 0
rfemur -55.672 -16.9185 7.27989
rtibia 40.4267 -0 0
rfoot -8.68417 4.17545 0.081364
rtoes 4.12627 -0 0
lowerback 18.3891 -0.433872 -5.18754
upperback 0.23981 -1.29862 3.01368
thorax -9.90242 -0.250216 6.63162
lowerneck 4.78092 -14.3116 -15.5164
upperneck 1.00835 -20.0839 14.8676
head 2.61155 -10.1724 6.19855
lclavicle 1.42734e-14 6.01644e-15 -5.38557e-31
lhumerus -39.986 -48.939 109.653
lradius 105.669 -0 0
lwrist 78.4659 0 0
lhand 6.41193 40.3934 -0.000427841
lfingers 7.12502 -0 0
lthumb 30.8106 67.5615 -0.000660112
rclavicle -2.40855e-14 1.64749e-14 -5.0672e-31
rhumerus 14.3674 -4.70381 -58.7025
rradius 84.1564 -0 0
rwrist -4.02469 0 0
rhand -30.0841 -42.6745 0.0338035
rfingers 7.12502 -0 0
rthumb -3.79509 -72.8678 0.00975192
2553
root 3.74578 13.9462 -24.4393 1082.89 79.466 2.26501
lfemur -35.5226 -0.253502 -16.4176
ltibia 88.1036 -0 0
lfoot -21.4693 32.2486 0
ltoes -42.2608 0 0
rfemur -56.1985 -16.8239 8.34656
rtibia 39.2254 -0 0
rfoot -8.91794 3.78765 0.0694885
rtoes 3.31925 -0 0
lowerback 18.3971 -0.298843 -5.26873
upperback 0.360865 -1.1575 2.81727
thorax -9.79558 -0.192928 6.41846
lowerneck 4.90586 -14.4058 -15.2718
upperneck 1.02539 -20.2192 14.9819
head 2.60521 -10.2433 6.19638
lclavicle 1.50909e-14 7.33669e-15 -4.12091e-31
lhumerus -39.9206 -48.9675 109.62
lradius 105.217 -0 0
lwrist 77.8189 0 0
lhand 6.29396 40.4022 -0.000563094
lfingers 7.12502 -0 0
lthumb 30.6739 67.5678 -0.000307797
rclavicle -2.57858e-14 1.55579e-14 -7.22448e-31
rhumerus 15.9506 -2.18581 -58.035
rradius 84.8628 -0 0
rwrist -6.24771 0 0
rhand -29.768 -42.4838 0.0159715
rfingers 7.12502 -0 0
rthumb -3.66051 -72.7833 0.00254105
